<svg version="1.0" id="Copy_24" width="24" height="24" viewBox="0 0 24 24" xmlns="http://www.w3.org/2000/svg" xmlns:xlink="http://www.w3.org/1999/xlink">
    <rect width="24" height="24" stroke="none" fill="#000000" opacity="0"/>
    <g transform="matrix(1 0 0 1 12 12)">
      <path style="fill:rgb(255, 255, 255); fill-rule:nonzero; opacity:1;" transform="translate(-12, -12)" d="M4 2C2.895 2 2 2.895 2 4L2 18L4 18L4 4L18 4L18 2L4 2zM8 6C6.895 6 6 6.895 6 8L6 20C6 21.105 6.895 22 8 22L20 22C21.105 22 22 21.105 22 20L22 8C22 6.895 21.105 6 20 6L8 6zM8 8L20 8L20 20L8 20L8 8z"/>
    </g>
</svg>